<?xml version="1.0" encoding="utf-8"?>
<!-- Generator: Adobe Illustrator 26.3.1, SVG Export Plug-In . SVG Version: 6.00 Build 0)  -->
<svg version="1.1" id="Laag_1" xmlns="http://www.w3.org/2000/svg" xmlns:xlink="http://www.w3.org/1999/xlink" x="0px" y="0px"
	 viewBox="0 0 778 592" style="enable-background:new 0 0 778 592;" xml:space="preserve">
<style type="text/css">
	.st0{fill:#416BA9;stroke:#000000;stroke-width:3;stroke-miterlimit:10;}
	.st1{fill:none;stroke:#000000;stroke-width:3;stroke-miterlimit:10;}
	.st2{fill:#243075;stroke:#000000;stroke-width:3;stroke-miterlimit:10;}
	.st3{fill:#C0CFE4;stroke:#000000;stroke-width:3;stroke-miterlimit:10;}
</style>
<g>
	<path class="st0" d="M674.6,1.5H100.9c-8.7,0-15.8,7.1-15.8,15.8v351.2c0,8.8,7.1,15.8,15.8,15.8h573.7c8.7,0,15.8-7.1,15.8-15.8
		V17.3C690.5,8.6,683.4,1.5,674.6,1.5z M667,354.1H108.3V22.4H667V354.1L667,354.1z"/>
	<path class="st1" d="M667,22.4H108.3v331.7H667V22.4z"/>
	<path class="st2" d="M758.5,590.5H19.3c-8.2,0-16.9-4.1-17.8-16.2v-11.1l80.9-149.6c4.4-8.8,13.3-14.3,23.1-14.3h565.7
		c10.6,0,33.8,20.8,38.6,30.3l66.8,136.2v4.9C776.7,584.8,767.5,590.5,758.5,590.5L758.5,590.5z"/>
	<path class="st3" d="M758.3,575.2H19.4c-8.7,0-15.8-7.1-15.8-15.8c26-53.3,51.9-106.5,77.8-159.8c0.8-1.7,3.1-7.2,8.6-11.2
		c5.4-3.9,11.7-4.7,16.5-4.7c319.7-0.7,554-0.8,566,0c7.5,0.5,13.2,4,13.2,4c6.5,4,9.5,9.6,10.6,11.9c26,53.3,51.9,106.5,77.8,159.8
		C774.1,568.1,767,575.2,758.3,575.2z"/>
	<path class="st0" d="M496.1,567.9H278.3c-2.4,0-4.3-2.2-3.9-4.6l9.2-57.4c0.5-3.1,3.2-5.4,6.3-5.4h196.5c2.8,0,5.1,2,5.6,4.8
		l8.4,57.7C500.6,565.6,498.7,567.9,496.1,567.9z"/>
	<path class="st0" d="M138.4,418h-23.6c-3.3,0-5.6-1-5.1-2.2l1.4-3.5c0.5-1.2,3.5-2.1,6.8-2.1h23.4c3.3,0,5.6,1,5.1,2.1l-1.3,3.5
		C144.7,417,141.7,418,138.4,418L138.4,418z"/>
	<path class="st0" d="M178.3,418h-23.6c-3.3,0-5.6-1-5.2-2.2l1.2-3.5c0.4-1.2,3.4-2.1,6.6-2.1h23.4c3.3,0,5.6,1,5.3,2.1l-1,3.5
		C184.5,417,181.6,418,178.3,418z"/>
	<path class="st0" d="M218.1,418h-23.6c-3.3,0-5.7-1-5.3-2.2l1-3.5c0.3-1.2,3.3-2.1,6.5-2.1h23.4c3.3,0,5.7,1,5.4,2.1l-0.8,3.5
		C224.3,417,221.4,418,218.1,418L218.1,418z"/>
	<path class="st0" d="M258,418h-23.6c-3.3,0-5.7-1-5.5-2.2l0.8-3.5c0.3-1.2,3.1-2.1,6.4-2.1h23.4c3.3,0,5.7,1,5.5,2.1l-0.6,3.5
		C264.1,417,261.3,418,258,418z"/>
	<path class="st0" d="M297.8,418h-23.6c-3.3,0-5.8-1-5.6-2.2l0.6-3.5c0.2-1.2,3-2.1,6.3-2.1h23.4c3.3,0,5.8,1,5.6,2.1l-0.4,3.5
		C303.9,417,301.1,418,297.8,418L297.8,418z"/>
	<path class="st0" d="M337.7,418h-23.6c-3.3,0-5.9-1-5.7-2.2l0.4-3.5c0.1-1.2,2.9-2.1,6.1-2.1h23.4c3.3,0,5.8,1,5.8,2.1l-0.2,3.5
		C343.7,417,341,418,337.7,418z"/>
	<path class="st0" d="M377.5,418h-23.6c-3.3,0-5.9-1-5.8-2.2l0.2-3.5c0.1-1.2,2.8-2.1,6-2.1h23.4c3.3,0,5.9,1,5.9,2.1v3.5
		C383.5,417,380.9,418,377.5,418L377.5,418z"/>
	<path class="st0" d="M417.4,418h-23.6c-3.3,0-6-1-6-2.2v-3.5c0-1.2,2.6-2.1,5.9-2.1H417c3.3,0,5.9,1,6,2.1l0.2,3.5
		C423.3,417,420.7,418,417.4,418z"/>
	<path class="st0" d="M457.3,418h-23.6c-3.3,0-6-1-6.1-2.2l-0.2-3.5c-0.1-1.2,2.5-2.1,5.8-2.1h23.4c3.3,0,6,1,6.1,2.1l0.4,3.5
		C463.1,417,460.6,418,457.3,418L457.3,418z"/>
	<path class="st0" d="M497.1,418h-23.6c-3.3,0-6.1-1-6.2-2.2l-0.4-3.5c-0.1-1.2,2.4-2.1,5.6-2.1h23.4c3.3,0,6.1,1,6.3,2.1l0.6,3.5
		C502.9,417,500.4,418,497.1,418z"/>
	<path class="st0" d="M537,418h-23.6c-3.3,0-6.1-1-6.4-2.2l-0.6-3.5c-0.2-1.2,2.3-2.1,5.5-2.1h23.4c3.3,0,6.1,1,6.4,2.1l0.8,3.5
		C542.7,417,540.3,418,537,418L537,418z"/>
	<path class="st0" d="M576.8,418h-23.6c-3.3,0-6.2-1-6.5-2.2l-0.8-3.5c-0.3-1.2,2.1-2.1,5.4-2.1h23.4c3.3,0,6.2,1,6.5,2.1l1,3.5
		C582.5,417,580.1,418,576.8,418z"/>
	<path class="st0" d="M616.7,418h-23.6c-3.3,0-6.3-1-6.6-2.2l-1.1-3.5c-0.4-1.2,2-2.1,5.3-2.1H614c3.3,0,6.2,1,6.6,2.1l1.2,3.5
		C622.3,417,620,418,616.7,418L616.7,418z"/>
	<path class="st0" d="M656.6,418h-23.6c-3.3,0-6.3-1-6.7-2.2l-1.3-3.5c-0.4-1.2,1.9-2.1,5.1-2.1h23.4c3.3,0,6.3,1,6.8,2.1l1.5,3.5
		C662.1,417,659.9,418,656.6,418z"/>
	<path class="st0" d="M136.2,431.2h-30.2c-0.8,0-1.3-0.2-1.2-0.5l4.5-11c0.1-0.3,0.8-0.5,1.5-0.5h29.6c0.7,0,1.3,0.2,1.2,0.5
		l-3.9,11C137.6,431,137,431.2,136.2,431.2L136.2,431.2z"/>
	<path class="st0" d="M191.9,445.7h-30.8c-0.8,0-1.3-0.2-1.2-0.5l3.7-11.5c0.1-0.3,0.8-0.5,1.5-0.5h30.2c0.8,0,1.3,0.2,1.2,0.5
		l-3.1,11.5C193.4,445.5,192.7,445.7,191.9,445.7L191.9,445.7z"/>
	<path class="st0" d="M196.9,460.8h-31.5c-0.8,0-1.3-0.3-1.3-0.6l3.7-12c0.1-0.3,0.8-0.5,1.6-0.5h30.9c0.8,0,1.3,0.2,1.3,0.5
		l-3.1,12C198.4,460.6,197.7,460.8,196.9,460.8z"/>
	<path class="st0" d="M214.6,476.6h-32.1c-0.8,0-1.4-0.3-1.3-0.6l3.5-12.5c0.1-0.3,0.8-0.6,1.6-0.6h31.5c0.8,0,1.4,0.2,1.3,0.6
		l-2.9,12.5C216.1,476.3,215.4,476.6,214.6,476.6L214.6,476.6z"/>
	<path class="st0" d="M113.2,494.9H80.5c-0.9,0-1.5-0.3-1.3-0.6l6-14.9c0.1-0.3,0.9-0.6,1.8-0.6H119c0.9,0,1.5,0.3,1.3,0.6
		l-5.3,14.9C114.9,494.6,114.1,494.9,113.2,494.9L113.2,494.9z"/>
	<path class="st0" d="M157,494.9h-32.8c-0.9,0-1.5-0.3-1.4-0.6l5.2-14.9c0.1-0.3,0.9-0.6,1.8-0.6h32.1c0.9,0,1.5,0.3,1.4,0.6
		l-4.4,14.9C158.6,494.6,157.9,494.9,157,494.9z"/>
	<path class="st0" d="M199.4,494.9h-32.8c-0.9,0-1.5-0.3-1.4-0.6l4.3-14.9c0.1-0.3,0.9-0.6,1.7-0.6h32.1c0.9,0,1.5,0.3,1.4,0.6
		l-3.6,14.9C201.1,494.6,200.3,494.9,199.4,494.9L199.4,494.9z"/>
	<path class="st0" d="M252.9,494.9h-43.2c-1,0-1.7-0.3-1.6-0.7l3.4-14.7c0.1-0.4,0.9-0.7,1.9-0.7h42.3c1,0,1.7,0.3,1.6,0.7
		l-2.5,14.7C254.7,494.6,253.9,494.9,252.9,494.9z"/>
	<path class="st0" d="M518.7,494.9h-43.2c-1,0-1.8-0.3-1.9-0.7l-1.7-14.7c0-0.4,0.7-0.7,1.7-0.7h42.3c1,0,1.8,0.3,1.9,0.7l2.6,14.7
		C520.5,494.6,519.7,494.9,518.7,494.9L518.7,494.9z"/>
	<path class="st0" d="M562.5,494.9h-32.3c-0.9,0-1.6-0.3-1.7-0.6l-2.8-14.9c-0.1-0.3,0.6-0.6,1.4-0.6h31.6c0.8,0,1.6,0.3,1.7,0.6
		l3.5,14.9C564,494.6,563.4,494.9,562.5,494.9L562.5,494.9z"/>
	<path class="st0" d="M464.7,494.9H265.3c-2.1,0-3.7-0.7-3.5-1.5l2.1-13.1c0.1-0.8,1.9-1.5,3.9-1.5H463c2,0,3.8,0.7,3.9,1.5
		l1.5,13.1C468.5,494.2,466.8,494.9,464.7,494.9z"/>
	<path class="st0" d="M256.4,476.6h-32.1c-0.8,0-1.4-0.3-1.3-0.6l2.8-12.5c0.1-0.3,0.8-0.6,1.5-0.6h31.5c0.8,0,1.4,0.2,1.3,0.6
		l-2.2,12.5C257.9,476.3,257.2,476.6,256.4,476.6L256.4,476.6z"/>
	<path class="st0" d="M298.1,476.6H266c-0.8,0-1.4-0.3-1.4-0.6l2-12.5c0.1-0.3,0.7-0.6,1.5-0.6h31.5c0.8,0,1.4,0.2,1.4,0.6
		l-1.5,12.5C299.6,476.3,298.9,476.6,298.1,476.6z"/>
	<path class="st0" d="M339.8,476.6h-32.1c-0.8,0-1.4-0.3-1.4-0.6l1.3-12.5c0-0.3,0.7-0.6,1.5-0.6h31.5c0.8,0,1.4,0.2,1.4,0.6
		l-0.7,12.5C341.3,476.3,340.6,476.6,339.8,476.6z"/>
	<path class="st0" d="M381.6,476.6h-32.1c-0.8,0-1.4-0.3-1.4-0.6l0.6-12.5c0-0.3,0.7-0.6,1.5-0.6h31.5c0.8,0,1.4,0.2,1.4,0.6l0,12.5
		C383,476.3,382.4,476.6,381.6,476.6z"/>
	<path class="st0" d="M423.3,476.6h-32.1c-0.8,0-1.5-0.3-1.5-0.6l-0.1-12.5c0-0.3,0.6-0.6,1.4-0.6h31.5c0.8,0,1.4,0.2,1.5,0.6
		l0.7,12.5C424.8,476.3,424.1,476.6,423.3,476.6L423.3,476.6z"/>
	<path class="st0" d="M465,476.6h-32.1c-0.8,0-1.5-0.3-1.5-0.6l-0.8-12.5c0-0.3,0.6-0.6,1.4-0.6h31.5c0.8,0,1.5,0.2,1.5,0.6
		l1.4,12.5C466.5,476.3,465.8,476.6,465,476.6L465,476.6z"/>
	<path class="st0" d="M506.8,476.6h-32.1c-0.8,0-1.5-0.3-1.5-0.6l-1.5-12.5c0-0.3,0.6-0.6,1.4-0.6h31.5c0.8,0,1.5,0.2,1.5,0.6
		l2.1,12.5C508.2,476.3,507.6,476.6,506.8,476.6z"/>
	<path class="st0" d="M548.5,476.6h-32.1c-0.8,0-1.5-0.3-1.6-0.6l-2.2-12.5c-0.1-0.3,0.5-0.6,1.3-0.6h31.5c0.8,0,1.5,0.2,1.5,0.6
		l2.8,12.5C549.9,476.3,549.3,476.6,548.5,476.6L548.5,476.6z"/>
	<path class="st0" d="M601.2,495.1h-25c-3.2,0-6-1-6.3-2.3l-0.9-3.8c-0.3-1.3,2-2.3,5.1-2.3h24.8c3.2,0,6,1,6.4,2.3l1.1,3.8
		C606.7,494.1,604.4,495.1,601.2,495.1z"/>
	<path class="st0" d="M644.1,495.1h-25c-3.2,0-6.1-1-6.5-2.3l-1.1-3.8c-0.4-1.3,1.9-2.3,5-2.3h24.8c3.2,0,6.1,1,6.5,2.3l1.3,3.8
		C649.5,494.1,647.3,495.1,644.1,495.1z"/>
	<path class="st0" d="M640.9,485.7h-24.7c-3.1,0-6-1-6.4-2.3l-1.1-3.7c-0.4-1.2,1.8-2.2,4.9-2.2h24.5c3.1,0,6,1,6.4,2.2l1.3,3.7
		C646.2,484.7,644,485.7,640.9,485.7z"/>
	<path class="st0" d="M687,495.1h-25c-3.2,0-6.1-1-6.6-2.3L654,489c-0.5-1.3,1.7-2.3,4.9-2.3h24.8c3.2,0,6.1,1,6.6,2.3l1.5,3.8
		C692.4,494.1,690.2,495.1,687,495.1L687,495.1z"/>
	<path class="st0" d="M238.2,460.8h-31.5c-0.8,0-1.4-0.3-1.3-0.6l3-12c0.1-0.3,0.8-0.5,1.5-0.5h30.9c0.8,0,1.3,0.2,1.3,0.5l-2.4,12
		C239.6,460.6,238.9,460.8,238.2,460.8z"/>
	<path class="st0" d="M279.4,460.8h-31.5c-0.8,0-1.4-0.3-1.3-0.6l2.3-12c0.1-0.3,0.7-0.5,1.5-0.5h30.9c0.8,0,1.4,0.2,1.3,0.5
		l-1.7,12C280.8,460.6,280.2,460.8,279.4,460.8z"/>
	<path class="st0" d="M320.6,460.8h-31.5c-0.8,0-1.4-0.3-1.3-0.6l1.6-12c0-0.3,0.7-0.5,1.5-0.5h30.9c0.8,0,1.4,0.2,1.3,0.5l-1,12
		C322,460.6,321.4,460.8,320.6,460.8z"/>
	<path class="st0" d="M361.6,460.8h-31.5c-0.8,0-1.4-0.3-1.4-0.6l0.9-12c0-0.3,0.7-0.5,1.4-0.5H362c0.8,0,1.4,0.2,1.4,0.5l-0.4,12
		C363,460.6,362.4,460.8,361.6,460.8L361.6,460.8z"/>
	<path class="st0" d="M402.8,460.8h-31.5c-0.8,0-1.4-0.3-1.4-0.6l0.3-12c0-0.3,0.6-0.5,1.4-0.5h30.9c0.8,0,1.4,0.2,1.4,0.5l0.3,12
		C404.2,460.6,403.6,460.8,402.8,460.8L402.8,460.8z"/>
	<path class="st0" d="M442.2,460.8h-31.5c-0.8,0-1.4-0.3-1.4-0.6l-0.4-12c0-0.3,0.6-0.5,1.4-0.5h30.9c0.8,0,1.4,0.2,1.4,0.5l1,12
		C443.6,460.6,443,460.8,442.2,460.8z"/>
	<path class="st0" d="M483.1,460.8h-31.5c-0.8,0-1.4-0.3-1.5-0.6l-1.1-12c0-0.3,0.6-0.5,1.3-0.5h30.9c0.8,0,1.4,0.2,1.5,0.5l1.7,12
		C484.5,460.6,483.9,460.8,483.1,460.8z"/>
	<path class="st0" d="M523.9,460.8h-31.5c-0.8,0-1.5-0.3-1.5-0.6l-1.8-12c0-0.3,0.5-0.5,1.3-0.5h30.9c0.8,0,1.4,0.2,1.5,0.5l2.3,12
		C525.3,460.6,524.7,460.8,523.9,460.8z"/>
	<path class="st0" d="M564.5,460.8h-31.5c-0.8,0-1.5-0.3-1.5-0.6l-2.4-12c-0.1-0.3,0.5-0.5,1.3-0.5h30.9c0.8,0,1.5,0.2,1.5,0.5l3,12
		C565.9,460.6,565.3,460.8,564.5,460.8L564.5,460.8z"/>
	<path class="st0" d="M605.1,460.8h-31.5c-0.8,0-1.5-0.3-1.6-0.6l-3.1-12c-0.1-0.3,0.5-0.5,1.3-0.5h30.9c0.8,0,1.5,0.2,1.6,0.5
		l3.7,12C606.4,460.6,605.9,460.8,605.1,460.8z"/>
	<path class="st0" d="M589.8,476.6h-32.1c-0.8,0-1.5-0.3-1.6-0.6l-2.9-12.5c-0.1-0.3,0.5-0.6,1.3-0.6H586c0.8,0,1.5,0.2,1.6,0.6
		l3.5,12.5C591.2,476.3,590.7,476.6,589.8,476.6z"/>
	<path class="st0" d="M677,460.8h-60.7c-1.1,0-2.1-0.3-2.2-0.8l-3.7-11.6c-0.1-0.4,0.6-0.7,1.7-0.7h59.6c1.1,0,2,0.3,2.2,0.7
		l4.7,11.6C678.8,460.5,678.1,460.8,677,460.8L677,460.8z"/>
	<path class="st0" d="M683.1,476.6h-83.2c-1.3,0-2.4-0.4-2.6-0.9l-3.4-11.9c-0.1-0.5,0.8-0.9,2-0.9h81.7c1.2,0,2.4,0.4,2.6,0.9
		l4.8,11.9C685.2,476.2,684.4,476.6,683.1,476.6z"/>
	<path class="st0" d="M156.1,460.8H94.7c-1.1,0-1.8-0.3-1.6-0.8l4.7-11.6c0.2-0.4,1.2-0.7,2.2-0.7h60.3c1.1,0,1.8,0.3,1.7,0.7
		l-3.6,11.6C158.1,460.5,157.1,460.8,156.1,460.8L156.1,460.8z"/>
	<path class="st0" d="M172.4,476.6H88c-1.3,0-2.1-0.4-1.9-0.9l4.8-11.9c0.2-0.5,1.4-0.9,2.6-0.9h82.9c1.3,0,2.1,0.4,2,0.9l-3.4,11.9
		C174.8,476.2,173.7,476.6,172.4,476.6L172.4,476.6z"/>
	<path class="st0" d="M232,445.7h-30.8c-0.8,0-1.3-0.2-1.3-0.5l3-11.5c0.1-0.3,0.7-0.5,1.5-0.5h30.2c0.8,0,1.3,0.2,1.3,0.5
		l-2.5,11.5C233.5,445.5,232.8,445.7,232,445.7L232,445.7z"/>
	<path class="st0" d="M272,445.7h-30.8c-0.8,0-1.3-0.2-1.3-0.5l2.4-11.5c0.1-0.3,0.7-0.5,1.5-0.5H274c0.8,0,1.3,0.2,1.3,0.5
		l-1.8,11.5C273.4,445.5,272.7,445.7,272,445.7L272,445.7z"/>
	<path class="st0" d="M312.1,445.7h-30.8c-0.8,0-1.4-0.2-1.3-0.5l1.7-11.5c0-0.3,0.7-0.5,1.4-0.5h30.2c0.8,0,1.3,0.2,1.3,0.5
		l-1.2,11.5C313.5,445.5,312.9,445.7,312.1,445.7L312.1,445.7z"/>
	<path class="st0" d="M352.3,445.7h-30.8c-0.8,0-1.4-0.2-1.3-0.5l1.1-11.5c0-0.3,0.7-0.5,1.4-0.5h30.2c0.8,0,1.4,0.2,1.3,0.5
		l-0.5,11.5C353.7,445.5,353,445.7,352.3,445.7z"/>
	<path class="st0" d="M392.2,445.7h-30.8c-0.8,0-1.4-0.2-1.4-0.5l0.4-11.5c0-0.3,0.6-0.5,1.4-0.5H392c0.8,0,1.4,0.2,1.4,0.5
		l0.1,11.5C393.5,445.5,392.9,445.7,392.2,445.7z"/>
	<path class="st0" d="M431.2,445.7h-30.8c-0.8,0-1.4-0.2-1.4-0.5l-0.2-11.5c0-0.3,0.6-0.5,1.4-0.5h30.2c0.8,0,1.4,0.2,1.4,0.5
		l0.8,11.5C432.5,445.5,431.9,445.7,431.2,445.7L431.2,445.7z"/>
	<path class="st0" d="M471.6,445.7h-30.8c-0.8,0-1.4-0.2-1.4-0.5l-0.9-11.5c0-0.3,0.6-0.5,1.3-0.5h30.2c0.8,0,1.4,0.2,1.4,0.5
		l1.4,11.5C473,445.5,472.4,445.7,471.6,445.7L471.6,445.7z"/>
	<path class="st0" d="M511.6,445.7h-30.8c-0.8,0-1.4-0.2-1.5-0.5l-1.5-11.5c0-0.3,0.5-0.5,1.3-0.5h30.2c0.8,0,1.4,0.2,1.5,0.5
		l2.1,11.5C513,445.5,512.4,445.7,511.6,445.7L511.6,445.7z"/>
	<path class="st0" d="M551,445.7h-30.8c-0.8,0-1.4-0.2-1.5-0.5l-2.2-11.5c-0.1-0.3,0.5-0.5,1.3-0.5H548c0.8,0,1.4,0.2,1.5,0.5
		l2.7,11.5C552.3,445.5,551.7,445.7,551,445.7L551,445.7z"/>
	<path class="st0" d="M591.9,445.7h-30.8c-0.8,0-1.5-0.2-1.5-0.5l-2.8-11.5c-0.1-0.3,0.5-0.5,1.2-0.5h30.2c0.8,0,1.4,0.2,1.5,0.5
		l3.4,11.5C593.3,445.5,592.7,445.7,591.9,445.7L591.9,445.7z"/>
	<path class="st0" d="M631.1,445.7h-30.8c-0.8,0-1.5-0.2-1.5-0.5l-3.5-11.5c-0.1-0.3,0.5-0.5,1.2-0.5h30.2c0.8,0,1.4,0.2,1.5,0.5
		l4,11.5C632.4,445.5,631.9,445.7,631.1,445.7z"/>
	<path class="st0" d="M671.4,445.7h-30.8c-0.8,0-1.5-0.2-1.6-0.5l-4.2-11.5c-0.1-0.3,0.4-0.5,1.2-0.5h30.2c0.8,0,1.5,0.2,1.6,0.5
		l4.7,11.5C672.7,445.5,672.1,445.7,671.4,445.7L671.4,445.7z"/>
	<path class="st0" d="M176.1,431.2h-30.2c-0.8,0-1.3-0.2-1.2-0.5l3.8-11c0.1-0.3,0.8-0.5,1.5-0.5h29.6c0.7,0,1.3,0.2,1.2,0.5
		l-3.3,11C177.5,431,176.8,431.2,176.1,431.2L176.1,431.2z"/>
	<path class="st0" d="M214.8,431.2h-30.2c-0.8,0-1.3-0.2-1.2-0.5l3.2-11c0.1-0.3,0.7-0.5,1.5-0.5h29.6c0.7,0,1.3,0.2,1.2,0.5
		l-2.7,11C216.2,431,215.5,431.2,214.8,431.2z"/>
	<path class="st0" d="M254.4,431.2h-30.2c-0.8,0-1.3-0.2-1.2-0.5l2.6-11c0.1-0.3,0.7-0.5,1.5-0.5h29.6c0.7,0,1.3,0.2,1.2,0.5
		l-2.1,11C255.8,431,255.2,431.2,254.4,431.2z"/>
	<path class="st0" d="M293.1,431.2h-30.2c-0.8,0-1.3-0.2-1.3-0.5l2-11c0.1-0.3,0.7-0.5,1.4-0.5h29.6c0.7,0,1.3,0.2,1.3,0.5l-1.4,11
		C294.5,431,293.9,431.2,293.1,431.2z"/>
	<path class="st0" d="M333,431.2h-30.2c-0.8,0-1.3-0.2-1.3-0.5l1.3-11c0-0.3,0.7-0.5,1.4-0.5h29.6c0.7,0,1.3,0.2,1.3,0.5l-0.8,11
		C334.4,431,333.7,431.2,333,431.2L333,431.2z"/>
	<path class="st0" d="M371.3,431.2h-30.2c-0.8,0-1.3-0.2-1.3-0.5l0.7-11c0-0.3,0.6-0.5,1.4-0.5h29.6c0.7,0,1.3,0.2,1.3,0.5l-0.2,11
		C372.7,431,372,431.2,371.3,431.2L371.3,431.2z"/>
	<path class="st0" d="M411.1,431.2h-30.2c-0.8,0-1.4-0.2-1.4-0.5l0.1-11c0-0.3,0.6-0.5,1.3-0.5h29.6c0.7,0,1.3,0.2,1.4,0.5l0.4,11
		C412.4,431,411.9,431.2,411.1,431.2z"/>
	<path class="st0" d="M449.8,431.2h-30.2c-0.8,0-1.4-0.2-1.4-0.5l-0.5-11c0-0.3,0.6-0.5,1.3-0.5h29.6c0.7,0,1.4,0.2,1.4,0.5l1.1,11
		C451.1,431,450.5,431.2,449.8,431.2L449.8,431.2z"/>
	<path class="st0" d="M489.5,431.2h-30.2c-0.8,0-1.4-0.2-1.4-0.5l-1.2-11c0-0.3,0.5-0.5,1.3-0.5h29.6c0.7,0,1.4,0.2,1.4,0.5l1.7,11
		C490.8,431,490.3,431.2,489.5,431.2z"/>
	<path class="st0" d="M529.2,431.2H499c-0.8,0-1.4-0.2-1.4-0.5l-1.8-11c0-0.3,0.5-0.5,1.3-0.5h29.6c0.7,0,1.4,0.2,1.4,0.5l2.3,11
		C530.5,431,529.9,431.2,529.2,431.2z"/>
	<path class="st0" d="M568.4,431.2h-30.2c-0.8,0-1.4-0.2-1.5-0.5l-2.4-11c-0.1-0.3,0.5-0.5,1.2-0.5h29.6c0.7,0,1.4,0.2,1.5,0.5l3,11
		C569.7,431,569.1,431.2,568.4,431.2L568.4,431.2z"/>
	<path class="st0" d="M606.1,431.2H576c-0.8,0-1.4-0.2-1.5-0.5l-3-11c-0.1-0.3,0.5-0.5,1.2-0.5h29.6c0.7,0,1.4,0.2,1.5,0.5l3.6,11
		C607.4,431,606.9,431.2,606.1,431.2L606.1,431.2z"/>
	<path class="st0" d="M662.7,431.2h-45.1c-2.1,0-4-0.6-4.2-1.4l-3.1-9.3c-0.3-0.8,1.2-1.4,3.3-1.4h44.3c2,0,4,0.6,4.3,1.4l3.8,9.3
		C666.2,430.6,664.7,431.2,662.7,431.2L662.7,431.2z"/>
	<path class="st0" d="M148.7,445.7h-46.1c-2.1,0-3.6-0.7-3.3-1.5l3.9-9.7c0.3-0.8,2.3-1.4,4.4-1.4H153c2.1,0,3.6,0.6,3.3,1.4
		l-3.2,9.7C152.8,445,150.9,445.7,148.7,445.7L148.7,445.7z"/>
</g>
</svg>
