<?xml version="1.0" encoding="UTF-8"?><svg id="Laag_1" xmlns="http://www.w3.org/2000/svg" viewBox="0 0 774.06 588.06"><defs><style>.cls-1{fill:none;}.cls-1,.cls-2,.cls-3,.cls-4{stroke:#000;stroke-miterlimit:10;stroke-width:3px;}.cls-2{fill:#c5b4e2;}.cls-3{fill:#7e57c5;}.cls-4{fill:#510c76;}</style></defs><path class="cls-4" d="M754.64,586.56H19.17c-8.16,0-16.79-4.12-17.67-16.11v-11.02l80.51-148.65c4.33-8.71,13.22-14.22,22.94-14.22H667.79c10.5,0,33.66,20.67,38.36,30.06l66.42,135.28v4.85c.16,14.09-8.95,19.77-17.91,19.77v.03Z"/><path class="cls-2" d="M754.42,571.42H19.33c-8.66,0-15.75-7.08-15.75-15.74,25.82-52.9,51.63-105.81,77.45-158.71,.81-1.68,3.05-7.16,8.57-11.11,5.41-3.87,11.63-4.67,16.37-4.63,318.03-.71,551.15-.77,563.13,0,7.5,.49,13.13,3.93,13.13,3.93,6.5,3.96,9.45,9.55,10.5,11.8,25.82,52.9,51.63,105.81,77.45,158.71,0,8.66-7.09,15.74-15.75,15.74Z"/><path class="cls-3" d="M493.58,564.08h-216.72c-2.4,0-4.24-2.15-3.86-4.53l9.14-57.04c.5-3.08,3.15-5.34,6.27-5.34h195.47c2.77,0,5.12,2.03,5.53,4.77l8.38,57.36c.33,2.53-1.64,4.78-4.2,4.78Z"/><path class="cls-3" d="M137.7,415.2h-23.51c-3.28,0-5.54-.97-5.05-2.16l1.43-3.52c.47-1.18,3.49-2.12,6.73-2.12h23.25c3.24,0,5.53,.94,5.12,2.12l-1.25,3.52c-.42,1.19-3.43,2.16-6.71,2.16h-.01Z"/><path class="cls-3" d="M177.36,415.2h-23.51c-3.28,0-5.6-.97-5.18-2.16l1.22-3.52c.41-1.18,3.37-2.12,6.6-2.12h23.25c3.24,0,5.59,.94,5.24,2.12l-1.04,3.52c-.36,1.19-3.3,2.16-6.58,2.16Z"/><path class="cls-3" d="M217.01,415.2h-23.51c-3.28,0-5.66-.97-5.32-2.16l1.02-3.52c.34-1.18,3.24-2.12,6.48-2.12h23.25c3.24,0,5.64,.94,5.37,2.12l-.84,3.52c-.29,1.19-3.18,2.16-6.44,2.16h-.01Z"/><path class="cls-3" d="M256.67,415.2h-23.51c-3.28,0-5.71-.97-5.43-2.16l.81-3.52c.28-1.18,3.12-2.12,6.35-2.12h23.25c3.24,0,5.7,.94,5.49,2.12l-.63,3.52c-.21,1.19-3.05,2.16-6.33,2.16Z"/><path class="cls-3" d="M296.33,415.2h-23.51c-3.28,0-5.78-.97-5.57-2.16l.6-3.52c.2-1.18,2.99-2.12,6.24-2.12h23.25c3.24,0,5.75,.94,5.62,2.12l-.42,3.52c-.14,1.19-2.91,2.16-6.19,2.16h-.01Z"/><path class="cls-3" d="M335.98,415.2h-23.51c-3.28,0-5.83-.97-5.7-2.16l.39-3.52c.13-1.18,2.86-2.12,6.1-2.12h23.25c3.24,0,5.82,.94,5.74,2.12l-.21,3.52c-.07,1.19-2.78,2.16-6.07,2.16Z"/><path class="cls-3" d="M375.64,415.2h-23.51c-3.28,0-5.88-.97-5.82-2.16l.2-3.52c.07-1.18,2.74-2.12,5.99-2.12h23.25c3.24,0,5.87,.94,5.87,2.12v3.52c0,1.19-2.67,2.16-5.95,2.16h-.03Z"/><path class="cls-3" d="M415.29,415.2h-23.51c-3.28,0-5.95-.97-5.95-2.16v-3.52c-.03-1.18,2.6-2.12,5.84-2.12h23.25c3.24,0,5.92,.94,5.99,2.12l.2,3.52c.07,1.19-2.53,2.16-5.82,2.16Z"/><path class="cls-3" d="M454.95,415.2h-23.51c-3.28,0-6-.97-6.08-2.16l-.22-3.52c-.08-1.18,2.49-2.12,5.74-2.12h23.25c3.24,0,5.97,.94,6.12,2.12l.41,3.52c.14,1.19-2.4,2.16-5.68,2.16h-.01Z"/><path class="cls-3" d="M494.6,415.2h-23.51c-3.28,0-6.05-.97-6.19-2.16l-.43-3.52c-.14-1.18,2.36-2.12,5.61-2.12h23.25c3.24,0,6.04,.94,6.24,2.12l.62,3.52c.21,1.19-2.28,2.16-5.57,2.16Z"/><path class="cls-3" d="M534.26,415.2h-23.51c-3.28,0-6.12-.97-6.33-2.16l-.64-3.52c-.21-1.18,2.24-2.12,5.49-2.12h23.25c3.24,0,6.09,.94,6.37,2.12l.83,3.52c.28,1.19-2.15,2.16-5.43,2.16h-.01Z"/><path class="cls-3" d="M573.92,415.2h-23.51c-3.28,0-6.17-.97-6.46-2.16l-.84-3.52c-.27-1.18,2.11-2.12,5.36-2.12h23.25c3.24,0,6.14,.94,6.48,2.12l1.02,3.52c.35,1.19-2.02,2.16-5.3,2.16Z"/><path class="cls-3" d="M613.57,415.2h-23.51c-3.28,0-6.22-.97-6.59-2.16l-1.05-3.52c-.35-1.18,1.99-2.12,5.24-2.12h23.25c3.24,0,6.21,.94,6.62,2.12l1.23,3.52c.42,1.19-1.9,2.16-5.17,2.16h-.01Z"/><path class="cls-3" d="M653.23,415.2h-23.51c-3.28,0-6.29-.97-6.71-2.16l-1.26-3.52c-.42-1.18,1.86-2.12,5.11-2.12h23.25c3.24,0,6.26,.94,6.73,2.12l1.44,3.52c.49,1.19-1.77,2.16-5.05,2.16Z"/><path class="cls-3" d="M135.54,428.34h-30.01c-.75,0-1.26-.22-1.15-.5l4.45-10.97c.11-.26,.79-.48,1.52-.48h29.48c.74,0,1.25,.22,1.15,.48l-3.93,10.97c-.1,.28-.79,.5-1.54,.5h.01Z"/><path class="cls-3" d="M190.93,442.73h-30.64c-.76,0-1.31-.24-1.21-.53l3.65-11.42c.09-.28,.78-.51,1.52-.51h30.09c.75,0,1.3,.22,1.22,.51l-3.1,11.42c-.08,.29-.76,.53-1.52,.53h-.01Z"/><path class="cls-3" d="M195.95,457.73h-31.29c-.78,0-1.34-.25-1.25-.55l3.65-11.92c.09-.29,.79-.52,1.55-.52h30.73c.76,0,1.33,.24,1.25,.52l-3.08,11.92c-.08,.3-.78,.55-1.55,.55Z"/><path class="cls-3" d="M213.56,473.4h-31.98c-.8,0-1.37-.25-1.29-.58l3.44-12.45c.08-.3,.79-.55,1.56-.55h31.39c.79,0,1.35,.25,1.29,.55l-2.85,12.45c-.08,.31-.78,.58-1.57,.58h.01Z"/><path class="cls-3" d="M112.67,491.6h-32.59c-.87,0-1.46-.29-1.31-.64l5.99-14.77c.13-.34,.93-.62,1.79-.62h31.9c.85,0,1.44,.27,1.31,.62l-5.29,14.77c-.13,.35-.93,.64-1.8,.64h.01Z"/><path class="cls-3" d="M156.2,491.6h-32.59c-.87,0-1.47-.29-1.35-.64l5.13-14.77c.12-.34,.91-.62,1.75-.62h31.9c.85,0,1.46,.27,1.35,.62l-4.42,14.77c-.1,.35-.89,.64-1.76,.64Z"/><path class="cls-3" d="M198.4,491.6h-32.59c-.87,0-1.48-.29-1.38-.64l4.31-14.77c.09-.34,.87-.62,1.72-.62h31.9c.85,0,1.47,.27,1.39,.62l-3.6,14.77c-.09,.35-.85,.64-1.72,.64h-.03Z"/><path class="cls-3" d="M251.59,491.6h-43c-.99,0-1.72-.33-1.62-.72l3.43-14.58c.09-.38,.94-.7,1.92-.7h42.08c.97,0,1.69,.32,1.63,.7l-2.52,14.58c-.07,.41-.93,.72-1.92,.72Z"/><path class="cls-3" d="M516.12,491.6h-43c-.98,0-1.82-.33-1.88-.72l-1.72-14.58c-.04-.38,.71-.7,1.67-.7h42.08c.97,0,1.81,.32,1.88,.7l2.62,14.58c.08,.41-.67,.72-1.67,.72h.01Z"/><path class="cls-3" d="M559.66,491.6h-32.13c-.87,0-1.61-.29-1.68-.63l-2.82-14.78c-.07-.34,.56-.6,1.4-.6h31.44c.84,0,1.59,.28,1.67,.6l3.52,14.78c.08,.35-.55,.63-1.4,.63h.01Z"/><path class="cls-3" d="M462.39,491.6h-198.41c-2.07,0-3.65-.68-3.52-1.52l2.13-13.02c.13-.81,1.89-1.47,3.93-1.47h194.18c2.04,0,3.75,.66,3.85,1.47l1.44,13.02c.09,.84-1.52,1.52-3.6,1.52Z"/><path class="cls-3" d="M255.08,473.4h-31.98c-.8,0-1.39-.25-1.31-.58l2.74-12.45c.07-.3,.76-.55,1.53-.55h31.39c.79,0,1.38,.25,1.33,.55l-2.14,12.45c-.05,.31-.75,.58-1.54,.58h-.03Z"/><path class="cls-3" d="M296.6,473.4h-31.98c-.8,0-1.4-.25-1.35-.58l2.03-12.45c.05-.3,.72-.55,1.51-.55h31.39c.79,0,1.39,.25,1.35,.55l-1.44,12.45c-.04,.31-.71,.58-1.51,.58Z"/><path class="cls-3" d="M338.12,473.4h-31.98c-.8,0-1.42-.25-1.38-.58l1.33-12.45c.03-.3,.7-.55,1.47-.55h31.39c.79,0,1.4,.25,1.38,.55l-.74,12.45c-.01,.31-.68,.58-1.47,.58Z"/><path class="cls-3" d="M379.65,473.4h-31.98c-.8,0-1.43-.25-1.42-.58l.62-12.45c.01-.3,.66-.55,1.44-.55h31.39c.79,0,1.42,.25,1.42,.55l-.03,12.45c0,.31-.64,.58-1.44,.58Z"/><path class="cls-3" d="M421.17,473.4h-31.98c-.8,0-1.44-.25-1.44-.58l-.09-12.45c0-.3,.63-.55,1.42-.55h31.39c.79,0,1.43,.25,1.44,.55l.68,12.45c.01,.31-.62,.58-1.4,.58h-.01Z"/><path class="cls-3" d="M462.69,473.4h-31.98c-.8,0-1.46-.25-1.48-.58l-.79-12.45c-.01-.3,.6-.55,1.38-.55h31.39c.79,0,1.44,.25,1.47,.55l1.38,12.45c.04,.31-.58,.58-1.38,.58h.01Z"/><path class="cls-3" d="M504.23,473.4h-31.98c-.8,0-1.47-.25-1.51-.58l-1.5-12.45c-.04-.3,.56-.55,1.35-.55h31.39c.79,0,1.46,.25,1.51,.55l2.09,12.45c.05,.31-.55,.58-1.35,.58Z"/><path class="cls-3" d="M545.75,473.4h-31.98c-.8,0-1.48-.25-1.55-.58l-2.21-12.45c-.05-.3,.54-.55,1.31-.55h31.39c.79,0,1.47,.25,1.54,.55l2.8,12.45c.07,.31-.51,.58-1.31,.58h.01Z"/><path class="cls-3" d="M598.15,491.85h-24.91c-3.16,0-6-1.04-6.31-2.32l-.92-3.74c-.32-1.26,1.98-2.28,5.11-2.28h24.64c3.14,0,5.97,1.02,6.35,2.28l1.1,3.74c.38,1.29-1.88,2.32-5.05,2.32Z"/><path class="cls-3" d="M640.85,491.85h-24.91c-3.16,0-6.05-1.04-6.45-2.32l-1.13-3.74c-.38-1.26,1.85-2.28,4.98-2.28h24.64c3.14,0,6.04,1.02,6.48,2.28l1.31,3.74c.45,1.29-1.75,2.32-4.92,2.32Z"/><path class="cls-3" d="M637.65,482.51h-24.61c-3.12,0-5.97-1.02-6.35-2.27l-1.1-3.65c-.38-1.23,1.84-2.23,4.92-2.23h24.34c3.1,0,5.96,1,6.39,2.23l1.29,3.65c.45,1.25-1.73,2.27-4.87,2.27Z"/><path class="cls-3" d="M683.55,491.85h-24.91c-3.16,0-6.12-1.04-6.58-2.32l-1.34-3.74c-.46-1.26,1.72-2.28,4.84-2.28h24.64c3.14,0,6.09,1.02,6.6,2.28l1.52,3.74c.53,1.29-1.61,2.32-4.79,2.32h.01Z"/><path class="cls-3" d="M236.95,457.73h-31.29c-.77,0-1.35-.25-1.27-.55l2.97-11.92c.08-.29,.75-.52,1.52-.52h30.73c.76,0,1.34,.24,1.27,.52l-2.4,11.92c-.07,.3-.75,.55-1.52,.55Z"/><path class="cls-3" d="M277.96,457.73h-31.29c-.77,0-1.37-.25-1.3-.55l2.28-11.92c.05-.29,.72-.52,1.48-.52h30.73c.76,0,1.35,.24,1.31,.52l-1.72,11.92c-.04,.3-.71,.55-1.5,.55Z"/><path class="cls-3" d="M318.97,457.73h-31.29c-.77,0-1.38-.25-1.34-.55l1.6-11.92c.04-.29,.69-.52,1.46-.52h30.73c.76,0,1.37,.24,1.34,.52l-1.04,11.92c-.03,.3-.68,.55-1.46,.55Z"/><path class="cls-3" d="M359.73,457.73h-31.29c-.77,0-1.39-.25-1.37-.55l.93-11.92c.03-.29,.66-.52,1.43-.52h30.73c.76,0,1.38,.24,1.36,.52l-.35,11.92c0,.3-.64,.55-1.43,.55h-.01Z"/><path class="cls-3" d="M400.75,457.73h-31.29c-.77,0-1.4-.25-1.4-.55l.25-11.92c0-.29,.63-.52,1.39-.52h30.73c.76,0,1.39,.24,1.4,.52l.33,11.92c0,.3-.62,.55-1.39,.55h-.01Z"/><path class="cls-3" d="M440,457.73h-31.29c-.77,0-1.42-.25-1.43-.55l-.41-11.92c0-.29,.6-.52,1.37-.52h30.73c.76,0,1.41,.24,1.43,.52l.97,11.92c.03,.3-.59,.55-1.36,.55Z"/><path class="cls-3" d="M480.64,457.73h-31.29c-.77,0-1.43-.25-1.46-.55l-1.09-11.92c-.03-.29,.58-.52,1.34-.52h30.73c.76,0,1.42,.24,1.46,.52l1.65,11.92c.04,.3-.55,.55-1.34,.55Z"/><path class="cls-3" d="M521.27,457.73h-31.29c-.77,0-1.44-.25-1.5-.55l-1.76-11.92c-.04-.29,.54-.52,1.31-.52h30.73c.76,0,1.43,.24,1.48,.52l2.32,11.92c.05,.3-.53,.55-1.3,.55Z"/><path class="cls-3" d="M561.66,457.73h-31.29c-.77,0-1.46-.25-1.52-.55l-2.43-11.92c-.07-.29,.51-.52,1.27-.52h30.73c.76,0,1.44,.24,1.52,.52l3.01,11.92c.08,.3-.5,.55-1.27,.55h-.01Z"/><path class="cls-3" d="M602.03,457.73h-31.29c-.77,0-1.47-.25-1.55-.55l-3.11-11.92c-.08-.29,.49-.52,1.25-.52h30.73c.76,0,1.46,.24,1.55,.52l3.68,11.92c.09,.3-.46,.55-1.25,.55Z"/><path class="cls-3" d="M586.86,473.4h-31.98c-.8,0-1.5-.25-1.58-.58l-2.9-12.45c-.07-.3,.5-.55,1.29-.55h31.39c.79,0,1.48,.25,1.58,.55l3.49,12.45c.09,.31-.49,.58-1.29,.58Z"/><path class="cls-3" d="M673.59,457.73h-60.42c-1.06,0-2.05-.34-2.18-.75l-3.68-11.52c-.13-.41,.62-.72,1.67-.72h59.32c1.05,0,2.03,.33,2.19,.72l4.71,11.52c.17,.42-.56,.75-1.63,.75h.01Z"/><path class="cls-3" d="M679.64,473.4h-82.79c-1.26,0-2.4-.41-2.55-.9l-3.41-11.79c-.14-.48,.75-.88,1.98-.88h81.27c1.23,0,2.4,.39,2.6,.88l4.82,11.79c.21,.5-.66,.9-1.92,.9Z"/><path class="cls-3" d="M155.27,457.73h-61.07c-1.08,0-1.81-.34-1.64-.76l4.67-11.52c.16-.41,1.16-.73,2.21-.73h59.96c1.05,0,1.81,.33,1.68,.73l-3.62,11.52c-.13,.42-1.12,.76-2.18,.76h-.01Z"/><path class="cls-3" d="M171.52,473.4H87.52c-1.27,0-2.13-.41-1.93-.9l4.79-11.78c.2-.48,1.37-.88,2.61-.88h82.45c1.25,0,2.14,.39,2.01,.88l-3.36,11.78c-.15,.5-1.29,.9-2.56,.9h-.01Z"/><path class="cls-3" d="M230.88,442.73h-30.64c-.76,0-1.33-.24-1.25-.53l2.99-11.42c.08-.28,.74-.51,1.48-.51h30.09c.75,0,1.31,.22,1.25,.51l-2.46,11.42c-.07,.29-.74,.53-1.5,.53h.03Z"/><path class="cls-3" d="M270.58,442.73h-30.64c-.76,0-1.34-.24-1.27-.53l2.35-11.42c.05-.28,.71-.51,1.46-.51h30.09c.75,0,1.33,.22,1.27,.51l-1.81,11.42c-.04,.29-.7,.53-1.47,.53h.03Z"/><path class="cls-3" d="M310.53,442.73h-30.64c-.76,0-1.35-.24-1.3-.53l1.69-11.42c.04-.28,.68-.51,1.43-.51h30.09c.75,0,1.34,.22,1.3,.51l-1.15,11.42c-.03,.29-.67,.53-1.43,.53h.01Z"/><path class="cls-3" d="M350.47,442.73h-30.64c-.76,0-1.36-.24-1.34-.53l1.05-11.42c.03-.28,.66-.51,1.4-.51h30.09c.75,0,1.35,.22,1.34,.51l-.5,11.42c0,.29-.64,.53-1.4,.53Z"/><path class="cls-3" d="M390.17,442.73h-30.64c-.76,0-1.38-.24-1.37-.53l.41-11.42c0-.28,.63-.51,1.38-.51h30.09c.75,0,1.36,.22,1.36,.51l.14,11.42c0,.29-.62,.53-1.38,.53Z"/><path class="cls-3" d="M428.97,442.73h-30.64c-.76,0-1.39-.24-1.39-.53l-.24-11.42c0-.28,.6-.51,1.35-.51h30.09c.75,0,1.38,.22,1.39,.51l.77,11.42c.03,.29-.58,.53-1.35,.53h.01Z"/><path class="cls-3" d="M469.24,442.73h-30.64c-.76,0-1.4-.24-1.42-.53l-.89-11.42c-.03-.28,.56-.51,1.31-.51h30.09c.75,0,1.39,.22,1.42,.51l1.43,11.42c.04,.29-.55,.53-1.31,.53h.01Z"/><path class="cls-3" d="M509.03,442.73h-30.64c-.76,0-1.42-.24-1.46-.53l-1.54-11.42c-.04-.28,.54-.51,1.29-.51h30.09c.75,0,1.39,.22,1.44,.51l2.09,11.42c.05,.29-.53,.53-1.29,.53h.01Z"/><path class="cls-3" d="M548.16,442.73h-30.64c-.76,0-1.43-.24-1.48-.53l-2.18-11.42c-.05-.28,.51-.51,1.26-.51h30.09c.75,0,1.4,.22,1.48,.51l2.72,11.42c.07,.29-.5,.53-1.26,.53h.01Z"/><path class="cls-3" d="M588.93,442.73h-30.64c-.76,0-1.44-.24-1.51-.53l-2.84-11.42c-.07-.28,.49-.51,1.23-.51h30.09c.75,0,1.42,.22,1.51,.51l3.39,11.42c.09,.29-.46,.53-1.22,.53h-.01Z"/><path class="cls-3" d="M627.89,442.73h-30.64c-.76,0-1.46-.24-1.54-.53l-3.48-11.42c-.08-.28,.46-.51,1.21-.51h30.09c.75,0,1.43,.22,1.53,.51l4.02,11.42c.1,.29-.43,.53-1.19,.53Z"/><path class="cls-3" d="M668.01,442.73h-30.64c-.76,0-1.47-.24-1.58-.53l-4.13-11.42c-.11-.28,.42-.51,1.17-.51h30.09c.75,0,1.44,.22,1.56,.51l4.67,11.42c.12,.29-.41,.53-1.17,.53h.03Z"/><path class="cls-3" d="M175.22,428.34h-30.01c-.75,0-1.27-.22-1.18-.5l3.82-10.97c.09-.26,.76-.48,1.5-.48h29.48c.74,0,1.26,.22,1.18,.48l-3.29,10.97c-.08,.28-.76,.5-1.51,.5h.01Z"/><path class="cls-3" d="M213.71,428.34h-30.01c-.75,0-1.29-.22-1.21-.5l3.2-10.97c.08-.26,.74-.48,1.47-.48h29.48c.74,0,1.27,.22,1.21,.48l-2.68,10.97c-.07,.28-.74,.5-1.47,.5Z"/><path class="cls-3" d="M253.15,428.34h-30.01c-.75,0-1.3-.22-1.23-.5l2.57-10.97c.07-.26,.71-.48,1.44-.48h29.48c.74,0,1.29,.22,1.23,.48l-2.05,10.97c-.05,.28-.7,.5-1.44,.5Z"/><path class="cls-3" d="M291.63,428.34h-30.01c-.75,0-1.31-.22-1.26-.5l1.96-10.97c.05-.26,.68-.48,1.42-.48h29.48c.74,0,1.3,.22,1.26,.48l-1.43,10.97c-.04,.28-.67,.5-1.42,.5Z"/><path class="cls-3" d="M331.3,428.34h-30.01c-.75,0-1.33-.22-1.29-.5l1.33-10.97c.03-.26,.66-.48,1.39-.48h29.48c.73,0,1.31,.22,1.3,.48l-.8,10.97c-.03,.28-.64,.5-1.39,.5h-.01Z"/><path class="cls-3" d="M369.42,428.34h-30.01c-.75,0-1.34-.22-1.33-.5l.71-10.97c.01-.26,.63-.48,1.37-.48h29.48c.74,0,1.33,.22,1.33,.48l-.2,10.97c0,.28-.62,.5-1.36,.5h.01Z"/><path class="cls-3" d="M409.02,428.34h-30.01c-.75,0-1.35-.22-1.35-.5l.08-10.97c0-.26,.6-.48,1.34-.48h29.48c.73,0,1.34,.22,1.35,.48l.45,10.97c0,.28-.59,.5-1.34,.5Z"/><path class="cls-3" d="M447.51,428.34h-30.01c-.75,0-1.37-.22-1.38-.5l-.54-10.97c0-.26,.58-.48,1.3-.48h29.48c.73,0,1.35,.22,1.38,.48l1.05,10.97c.03,.28-.55,.5-1.3,.5h.01Z"/><path class="cls-3" d="M487.04,428.34h-30.01c-.75,0-1.38-.22-1.4-.5l-1.17-10.97c-.03-.26,.54-.48,1.27-.48h29.48c.74,0,1.37,.22,1.4,.48l1.69,10.97c.04,.28-.53,.5-1.27,.5Z"/><path class="cls-3" d="M526.49,428.34h-30.01c-.75,0-1.39-.22-1.43-.5l-1.8-10.97c-.04-.26,.51-.48,1.25-.48h29.48c.73,0,1.38,.22,1.43,.48l2.32,10.97c.05,.28-.5,.5-1.25,.5Z"/><path class="cls-3" d="M565.53,428.34h-30.01c-.75,0-1.4-.22-1.47-.5l-2.41-10.97c-.07-.26,.48-.48,1.22-.48h29.48c.73,0,1.39,.22,1.46,.48l2.94,10.97c.08,.28-.47,.5-1.22,.5h.01Z"/><path class="cls-3" d="M603.06,428.34h-30.01c-.75,0-1.42-.22-1.5-.5l-3.02-10.97c-.08-.26,.46-.48,1.19-.48h29.48c.73,0,1.4,.22,1.48,.48l3.54,10.97c.09,.28-.45,.5-1.19,.5h.01Z"/><path class="cls-3" d="M659.3,428.34h-44.88c-2.07,0-3.96-.63-4.23-1.39l-3.06-9.21c-.25-.75,1.21-1.35,3.24-1.35h44.09c2.04,0,3.94,.6,4.24,1.35l3.75,9.21c.32,.77-1.11,1.39-3.19,1.39h.03Z"/><path class="cls-3" d="M147.99,442.73h-45.82c-2.11,0-3.57-.66-3.24-1.46l3.9-9.6c.32-.77,2.26-1.4,4.35-1.4h45.01c2.09,0,3.56,.63,3.31,1.4l-3.16,9.6c-.26,.8-2.19,1.46-4.32,1.46h-.01Z"/><path class="cls-3" d="M671.21,1.5H100.41c-8.7,0-15.75,7.04-15.75,15.74V366.06c0,8.7,7.05,15.74,15.75,15.74H671.21c8.7,0,15.75-7.04,15.75-15.74V17.24c0-8.7-7.05-15.74-15.75-15.74Zm-7.59,350.28H107.79V22.24H663.62V351.77h0Z"/><path class="cls-1" d="M663.62,22.24H107.79V351.77H663.62V22.24Z"/></svg>